<?xml version="1.0" standalone="no"?>
<!DOCTYPE svg PUBLIC "-//W3C//DTD SVG 20010904//EN"
 "http://www.w3.org/TR/2001/REC-SVG-20010904/DTD/svg10.dtd">
<svg version="1.0" xmlns="http://www.w3.org/2000/svg"
 width="18.000000pt" height="18.000000pt" viewBox="0 0 200.000000 200.000000"
 preserveAspectRatio="xMidYMid meet">
<metadata>
Created by potrace 1.15, written by Peter Selinger 2001-2017
</metadata>
<g transform="translate(0.000000,200.000000) scale(0.100000,-0.100000)"
fill="#b8b8b8" stroke="none">
<path d="M885 1890 c-386 -54 -692 -336 -771 -710 -23 -108 -18 -301 10 -412
63 -250 241 -470 471 -585 208 -104 461 -123 685 -51 134 43 236 105 344 207
128 124 218 279 257 447 18 81 21 114 17 242 -6 157 -28 252 -86 367 -117 234
-344 416 -591 474 -99 24 -251 33 -336 21z m263 -146 c436 -89 709 -529 592
-953 -84 -301 -339 -520 -656 -562 -301 -40 -617 131 -763 411 -102 195 -116
405 -40 613 128 355 501 566 867 491z"/>
<path d="M696 1294 c-9 -8 -16 -23 -16 -32 0 -10 56 -73 125 -142 l125 -124
-125 -127 c-122 -123 -140 -150 -113 -177 31 -31 61 -14 185 110 l123 123 123
-123 c124 -124 154 -141 185 -110 27 27 9 54 -113 177 l-125 127 125 124 c69
69 125 132 125 142 0 23 -27 48 -52 48 -14 0 -66 -44 -145 -122 l-123 -122
-123 122 c-126 124 -150 138 -181 106z"/>
</g>
</svg>
