<?xml version="1.0" standalone="no"?>
<!DOCTYPE svg PUBLIC "-//W3C//DTD SVG 20010904//EN"
 "http://www.w3.org/TR/2001/REC-SVG-20010904/DTD/svg10.dtd">
<svg version="1.0" xmlns="http://www.w3.org/2000/svg"
 width="354.000000pt" height="181.000000pt" viewBox="0 0 354.000000 181.000000"
 preserveAspectRatio="xMidYMid meet">
<metadata>
Created by potrace 1.15, written by Peter Selinger 2001-2017
</metadata>
<g transform="translate(0.000000,181.000000) scale(0.100000,-0.100000)"
fill="#b8b8b8" stroke="none">
<path d="M7 1803 c-4 -3 -7 -55 -7 -115 l0 -108 115 0 115 0 0 115 0 115 -108
0 c-60 0 -112 -3 -115 -7z"/>
<path d="M3316 1756 c-3 -30 -3 -81 0 -115 l7 -61 108 0 109 0 0 115 0 115
-109 0 -108 0 -7 -54z"/>
<path d="M240 1455 l0 -115 115 0 115 0 0 115 0 115 -115 0 -115 0 0 -115z"/>
<path d="M3080 1455 l0 -116 113 3 112 3 3 113 3 112 -116 0 -115 0 0 -115z"/>
<path d="M480 1220 l0 -110 113 0 113 0 0 110 0 110 -113 0 -113 0 0 -110z"/>
<path d="M2840 1220 l0 -110 115 0 115 0 0 110 0 110 -115 0 -115 0 0 -110z"/>
<path d="M717 1093 c-4 -3 -7 -55 -7 -115 l0 -108 115 0 115 0 0 115 0 115
-108 0 c-60 0 -112 -3 -115 -7z"/>
<path d="M2606 1039 c-3 -34 -3 -85 0 -115 l7 -54 108 0 109 0 0 115 0 115
-109 0 -108 0 -7 -61z"/>
<path d="M950 745 l0 -116 113 3 112 3 3 113 3 112 -116 0 -115 0 0 -115z"/>
<path d="M2370 745 l0 -116 113 3 112 3 3 113 3 112 -116 0 -115 0 0 -115z"/>
<path d="M1233 623 l-43 -4 0 -110 0 -109 110 0 110 0 0 109 0 108 -46 7 c-26
3 -56 5 -68 4 -12 -1 -40 -3 -63 -5z"/>
<path d="M2134 621 c-2 -2 -4 -53 -4 -113 l0 -108 115 0 115 0 0 110 0 110
-27 2 c-51 4 -194 3 -199 -1z"/>
<path d="M1420 275 l0 -115 115 0 115 0 0 115 0 115 -115 0 -115 0 0 -115z"/>
<path d="M1896 321 c-3 -38 -3 -89 0 -115 l7 -46 108 0 109 0 0 115 0 115
-109 0 -108 0 -7 -69z"/>
<path d="M1660 75 l0 -75 115 0 115 0 0 75 0 75 -115 0 -115 0 0 -75z"/>
</g>
</svg>
