<?xml version="1.0" standalone="no"?>
<!DOCTYPE svg PUBLIC "-//W3C//DTD SVG 20010904//EN"
 "http://www.w3.org/TR/2001/REC-SVG-20010904/DTD/svg10.dtd">
<svg version="1.0" xmlns="http://www.w3.org/2000/svg"
 width="60.000000pt" height="100.000000pt" viewBox="0 0 60.000000 100.000000"
 preserveAspectRatio="xMidYMid meet">
<metadata>
Created by potrace 1.15, written by Peter Selinger 2001-2017
</metadata>
<g transform="translate(0.000000,100.000000) scale(0.100000,-0.100000)"
fill="#464646" stroke="none">
<path d="M0 900 l0 -100 101 0 101 0 -4 -102 -3 -103 103 3 102 3 0 100 0 99
-100 0 -100 0 0 100 0 100 -100 0 -100 0 0 -100z"/>
<path d="M405 601 c-3 -2 -5 -46 -5 -98 l0 -93 -102 0 -103 0 3 -100 4 -100
-101 0 -101 0 0 -105 0 -105 100 0 100 0 0 100 0 100 100 0 100 0 0 100 0 100
100 0 101 0 -3 102 -3 103 -93 0 c-51 1 -95 -1 -97 -4z"/>
</g>
</svg>
