<?xml version="1.0" standalone="no"?>
<!DOCTYPE svg PUBLIC "-//W3C//DTD SVG 20010904//EN"
 "http://www.w3.org/TR/2001/REC-SVG-20010904/DTD/svg10.dtd">
<svg version="1.0" xmlns="http://www.w3.org/2000/svg"
 width="150.000000pt" height="150.000000pt" viewBox="0 0 150.000000 150.000000"
 preserveAspectRatio="xMidYMid meet">
<metadata>
Created by potrace 1.15, written by Peter Selinger 2001-2017
</metadata>
<g transform="translate(0.000000,150.000000) scale(0.100000,-0.100000)"
fill="#464646" stroke="none">
<path d="M556 1480 c-210 -56 -387 -202 -481 -395 -54 -113 -75 -205 -75 -338
0 -129 24 -230 82 -347 34 -69 60 -103 138 -180 77 -78 111 -104 180 -138 118
-59 218 -82 350 -82 132 0 232 23 350 82 69 34 103 60 180 138 78 77 104 111
138 180 111 223 112 475 2 695 -93 187 -284 339 -491 389 -92 23 -283 21 -373
-4z m309 -145 c116 -24 208 -76 300 -169 132 -133 181 -260 172 -446 -6 -129
-30 -203 -99 -306 -111 -166 -296 -263 -498 -264 -354 -1 -642 331 -590 678
16 102 42 168 102 258 133 199 378 298 613 249z"/>
<path d="M660 1057 l-25 -13 -3 -202 c-1 -128 1 -210 8 -222 10 -19 22 -20
165 -20 142 0 155 2 165 19 17 32 12 69 -12 85 -16 12 -47 16 -115 16 l-93 0
0 159 c0 115 -3 161 -12 169 -24 18 -53 22 -78 9z"/>
</g>
</svg>
